<svg width="24" height="24" viewBox="0 0 24 24" fill="none" xmlns="http://www.w3.org/2000/svg">
<path d="M7.65303 8.522L4.1535 5.02246C2.5093 6.87071 1.50098 9.33739 1.50098 12C1.50098 14.6625 2.5093 17.1292 4.1535 18.9775L7.65303 15.4779C6.89523 14.5306 6.42285 13.3048 6.42285 12C6.42285 10.6951 6.89523 9.46933 7.65303 8.522Z" fill="#3C5163"/>
<path d="M19.8484 5.02246L16.3489 8.522C17.1067 9.46933 17.5791 10.6951 17.5791 12C17.5791 13.3048 17.1067 14.5306 16.3489 15.4779L19.8484 18.9775C21.4926 17.1292 22.5009 14.6625 22.5009 12C22.5009 9.33739 21.4926 6.87071 19.8484 5.02246Z" fill="#3C5163"/>
<path d="M15.4789 16.3477C14.5316 17.1055 13.3058 17.5778 12.0009 17.5778C10.6961 17.5778 9.47031 17.1055 8.52297 16.3477L5.02344 19.8472C6.87168 21.4914 9.33836 22.4997 12.0009 22.4997C14.6635 22.4997 17.1302 21.4914 18.9784 19.8472L15.4789 16.3477Z" fill="#3C5163"/>
<path d="M12.0009 1.5C9.33836 1.5 6.87168 2.50833 5.02344 4.15252L8.52297 7.65206C9.47031 6.89425 10.6961 6.42188 12.0009 6.42188C13.3058 6.42188 14.5316 6.89425 15.4789 7.65206L18.9784 4.15252C17.1302 2.50833 14.6635 1.5 12.0009 1.5Z" fill="#3C5163"/>
<path d="M18.8095 1.5C18.4092 1.5 18.0234 1.58457 17.6516 1.70828C18.2159 2.01831 18.7468 2.37954 19.2498 2.77501C20.2536 2.95757 21.0434 3.74737 21.226 4.75119C21.6214 5.25416 21.9827 5.78511 22.2927 6.34936C22.4164 5.97755 22.5009 5.59172 22.5009 5.19141C22.5009 3.15584 20.8451 1.5 18.8095 1.5Z" fill="#3C5163"/>
<path d="M22.2927 17.6504C21.9827 18.2146 21.6215 18.7456 21.226 19.2486C21.0434 20.2524 20.2536 21.0421 19.2498 21.2247C18.7468 21.6202 18.2159 21.9815 17.6516 22.2915C18.0234 22.4151 18.4093 22.4997 18.8096 22.4997C20.8451 22.4997 22.501 20.8439 22.501 18.8083C22.501 18.408 22.4164 18.0222 22.2927 17.6504Z" fill="#3C5163"/>
<path d="M5.19238 1.5C3.15682 1.5 1.50098 3.15584 1.50098 5.19141C1.50098 5.59172 1.58555 5.97755 1.70925 6.34932C2.01925 5.78507 2.38047 5.25412 2.77599 4.75115C2.95855 3.74733 3.74835 2.95757 4.75216 2.77497C5.25514 2.3795 5.78608 2.01823 6.35034 1.70824C5.97853 1.58457 5.5927 1.5 5.19238 1.5Z" fill="#3C5163"/>
<path d="M4.75212 21.2247C3.74831 21.0422 2.95855 20.2524 2.77595 19.2486C2.38047 18.7456 2.01921 18.2146 1.70921 17.6504C1.58555 18.0222 1.50098 18.408 1.50098 18.8083C1.50098 20.8439 3.15682 22.4998 5.19238 22.4998C5.5927 22.4998 5.97853 22.4152 6.3503 22.2915C5.78604 21.9814 5.2551 21.6202 4.75212 21.2247Z" fill="#3C5163"/>
</svg>
