<svg width="18" height="18" viewBox="0 0 18 18" fill="none" xmlns="http://www.w3.org/2000/svg">
<path d="M16.875 15.4145H1.125C0.892936 15.4145 0.670376 15.5046 0.506282 15.665C0.342187 15.8254 0.25 16.043 0.25 16.2698C0.25 16.4966 0.342187 16.7142 0.506282 16.8746C0.670376 17.0349 0.892936 17.1251 1.125 17.1251H16.875C17.1071 17.1251 17.3296 17.0349 17.4937 16.8746C17.6578 16.7142 17.75 16.4966 17.75 16.2698C17.75 16.043 17.6578 15.8254 17.4937 15.665C17.3296 15.5046 17.1071 15.4145 16.875 15.4145ZM9 0.875C8.76794 0.875 8.54538 0.965108 8.38128 1.1255C8.21719 1.28589 8.125 1.50344 8.125 1.73027V10.7875L5.24625 7.96515C5.08148 7.8041 4.85801 7.71363 4.625 7.71363C4.39199 7.71363 4.16852 7.8041 4.00375 7.96515C3.83898 8.1262 3.74642 8.34463 3.74642 8.57239C3.74642 8.80015 3.83898 9.01858 4.00375 9.17963L8.37875 13.456C8.46009 13.5361 8.55687 13.5998 8.6635 13.6432C8.77012 13.6866 8.88449 13.7089 9 13.7089C9.11551 13.7089 9.22988 13.6866 9.3365 13.6432C9.44313 13.5998 9.53991 13.5361 9.62125 13.456L13.9962 9.17963C14.0778 9.09989 14.1425 9.00522 14.1867 8.90103C14.2309 8.79684 14.2536 8.68517 14.2536 8.57239C14.2536 8.45962 14.2309 8.34795 14.1867 8.24376C14.1425 8.13957 14.0778 8.0449 13.9962 7.96515C13.9147 7.88541 13.8178 7.82215 13.7112 7.779C13.6046 7.73584 13.4904 7.71363 13.375 7.71363C13.2596 7.71363 13.1454 7.73584 13.0388 7.779C12.9322 7.82215 12.8353 7.88541 12.7538 7.96515L9.875 10.7875V1.73027C9.875 1.50344 9.78281 1.28589 9.61872 1.1255C9.45462 0.965108 9.23206 0.875 9 0.875Z" fill="#5FAEE3"/>
</svg>
