<svg width="18" height="18" viewBox="0 0 18 18" fill="none" xmlns="http://www.w3.org/2000/svg">
<path fill-rule="evenodd" clip-rule="evenodd" d="M9 17.75C13.8325 17.75 17.75 13.8325 17.75 9C17.75 4.16751 13.8325 0.25 9 0.25C4.16751 0.25 0.25 4.16751 0.25 9C0.25 13.8325 4.16751 17.75 9 17.75ZM8.375 5.25C8.375 4.90482 8.65482 4.625 9 4.625C9.34518 4.625 9.625 4.90482 9.625 5.25V8.375H12.75C13.0952 8.375 13.375 8.65482 13.375 9C13.375 9.34518 13.0952 9.625 12.75 9.625H9.625V12.75C9.625 13.0952 9.34518 13.375 9 13.375C8.65482 13.375 8.375 13.0952 8.375 12.75V9.625H5.25C4.90482 9.625 4.625 9.34518 4.625 9C4.625 8.65482 4.90482 8.375 5.25 8.375H8.375V5.25Z" fill="#3ED48C"/>
</svg>
