<svg width="24" height="24" viewBox="0 0 24 24" fill="none" xmlns="http://www.w3.org/2000/svg">
<path d="M15.2812 3H8.71875C7.47487 3 6.46289 3.98692 6.46289 5.2V18.8C6.46289 20.0131 7.47487 21 8.71875 21H15.2812C16.5251 21 17.5371 20.0131 17.5371 18.8V5.2C17.5371 3.98692 16.5251 3 15.2812 3ZM12.8203 19.4H11.1797C10.8399 19.4 10.5645 19.1314 10.5645 18.8C10.5645 18.4686 10.8399 18.2 11.1797 18.2H12.8203C13.1601 18.2 13.4355 18.4686 13.4355 18.8C13.4355 19.1314 13.1601 19.4 12.8203 19.4ZM12.8203 5.8H11.1797C10.8399 5.8 10.5645 5.53136 10.5645 5.2C10.5645 4.86864 10.8399 4.6 11.1797 4.6H12.8203C13.1601 4.6 13.4355 4.86864 13.4355 5.2C13.4355 5.53136 13.1601 5.8 12.8203 5.8Z" fill="#3C5163"/>
<path d="M21.6073 8.1163C21.4467 7.8243 21.0738 7.71454 20.7744 7.87118C20.475 8.02782 20.3624 8.3915 20.523 8.6835V8.68354C21.0045 9.5589 21.2696 10.7365 21.2696 11.9993C21.2696 13.2622 21.0043 14.4402 20.5224 15.3163V15.3163C20.3618 15.6083 20.4743 15.972 20.7738 16.1286H20.7738C21.0732 16.2853 21.4461 16.1755 21.6067 15.8835C22.1828 14.8361 22.5001 13.4566 22.5001 11.9993C22.5001 10.5421 22.1831 9.16302 21.6073 8.1163Z" fill="#3C5163"/>
<path d="M18.6963 9.08637C18.4054 9.25757 18.3119 9.62637 18.4875 9.91009C18.8269 10.4586 19.0138 11.2007 19.0138 11.9997C19.0138 12.7988 18.8267 13.5411 18.487 14.0901C18.3115 14.3738 18.405 14.7426 18.6959 14.9138C18.9868 15.0851 19.365 14.9938 19.5405 14.7101C19.9943 13.9767 20.2442 13.0141 20.2442 11.9997C20.2442 10.9853 19.9945 10.023 19.541 9.29009C19.3654 9.00637 18.9873 8.91517 18.6963 9.08637Z" fill="#3C5163"/>
<path d="M3.47769 15.3163C2.99584 14.4402 2.73047 13.2623 2.73047 11.9994C2.73047 10.7365 2.99563 9.55894 3.47712 8.68354C3.63773 8.39154 3.52519 8.02782 3.22577 7.87118C2.92636 7.71454 2.5534 7.8243 2.39279 8.1163C1.81705 9.16306 1.5 10.5421 1.5 11.9994C1.5 13.4567 1.81726 14.8361 2.3934 15.8835C2.55402 16.1755 2.92693 16.2853 3.22635 16.1287C3.52576 15.9721 3.63831 15.6083 3.47769 15.3163Z" fill="#3C5163"/>
<path d="M4.98633 11.9997C4.98633 11.2007 5.17324 10.4586 5.51264 9.91009C5.68819 9.62637 5.59467 9.25761 5.30375 9.08637C5.01282 8.91517 4.63466 9.00637 4.45911 9.29009C4.0056 10.023 3.75586 10.9853 3.75586 11.9997C3.75586 13.0142 4.00577 13.9767 4.45956 14.7101C4.63511 14.9938 5.01328 15.085 5.3042 14.9138C5.59512 14.7426 5.68864 14.3738 5.51309 14.0901C5.1734 13.5411 4.98633 12.7987 4.98633 11.9997Z" fill="#3C5163"/>
</svg>
